#!OML:ASF I:\salsa\salsa 7_09\Patient 1\Session 1\dancerfemale.ASF
:FULLY-SPECIFIED
:DEGREES
1584
root -6.5387 16.0583 -1.25662 172.912 482.193 163.62
lowerback 3.63618 7.5886 8.49455
upperback -6.40006 10.9051 -0.621518
thorax -7.13311 4.9098 -6.22919
lowerneck 2.35288 -8.72787 -10.3071
upperneck -2.89372 -11.6907 14.6998
head 0.277517 -5.92379 5.99542
rclavicle -7.92654e-014 -3.65764e-014
rhumerus -7.93157 8.5647 -89.2004
rradius 104.902
rwrist -4.56804
rhand 11.0643 48.5739
rfingers 7.12502
rthumb 36.1351 22.2907
lclavicle -7.92654e-014 -3.65764e-014
lhumerus -74.8118 18.1487 47.6112
lradius 97.7327
lwrist -22.6892
lhand -10.7866 37.9522
lfingers 7.12502
lthumb 15.226 67.3719
rfemur -18.2367 -19.3948 37.6191
rtibia 30.6369
rfoot -16.4212 -18.9149
rtoes -29.9624
lfemur -26.3593 3.45351 -9.39287
ltibia 70.0471
lfoot -12.1211 1.22236
ltoes -13.5873
1585
root -6.77272 16.078 -1.25848 174.558 478.595 166.354
lowerback 3.44671 7.50015 5.97485
upperback -6.09308 10.5272 -1.05317
thorax -7.0738 4.86262 -5.28178
lowerneck 3.05403 -9.27252 -10.5394
upperneck -3.7785 -12.3995 15.1564
head 0.0424551 -6.31648 6.20177
rclavicle -2.17421e-014 -7.15625e-015
rhumerus -6.83551 7.20484 -90.1652
rradius 104.02
rwrist -5.21202
rhand 10.7615 48.3323
rfingers 7.12502
rthumb 35.8482 21.9787
lclavicle -2.17421e-014 -7.15625e-015
lhumerus -75.1124 17.929 46.9686
lradius 97.6139
lwrist -21.0757
lhand -8.76443 39.5933
lfingers 7.12502
lthumb 17.1732 68.8544
rfemur -19.0002 -20.1311 35.9027
rtibia 31.5093
rfoot -17.6948 -19.4796
rtoes -27.3862
lfemur -22.7598 3.56211 -12.3208
ltibia 68.1092
lfoot -9.1963 -1.32177
ltoes -0.275986
1586
root -7.0204 16.0842 -1.27452 175.69 475.282 167.78
lowerback 3.28517 7.43176 4.29795
upperback -6.1144 10.2915 -1.33132
thorax -7.25609 4.82612 -4.65607
lowerneck 3.71285 -9.85159 -10.5943
upperneck -4.45351 -13.1692 15.3155
head -0.145793 -6.73437 6.28373
rclavicle 4.28381e-014 4.77083e-015
rhumerus -5.90628 5.81523 -90.9863
rradius 103.233
rwrist -5.2732
rhand 10.989 47.4823
rfingers 7.12502
rthumb 36.0638 21.1814
lclavicle 4.28381e-014 4.77083e-015
lhumerus -75.1411 17.514 46.3247
lradius 97.7077
lwrist -18.9975
lhand -8.19842 39.5117
lfingers 7.12502
lthumb 17.7179 68.7245
rfemur -20.335 -19.3497 35.2249
rtibia 32.2432
rfoot -19.1241 -21.4646
rtoes -25.2329
lfemur -19.9392 3.70148 -13.9263
ltibia 65.8573
lfoot -9.87268 -3.93218
ltoes -5.18543
1587
root -7.27268 16.0707 -1.3034 175.915 472.081 167.751
lowerback 2.85143 7.34969 3.30559
upperback -6.18547 10.1007 -1.39504
thorax -7.25337 4.79155 -4.13163
lowerneck 3.87726 -10.4165 -10.7684
upperneck -4.67319 -13.9373 15.3636
head -0.119985 -7.12378 6.30568
rclavicle -3.3197e-014 -5.56597e-015
rhumerus -4.9444 4.59803 -91.5137
rradius 102.364
rwrist -4.57805
rhand 11.1671 46.7606
rfingers 7.12502
rthumb 36.2324 20.5015
lclavicle -3.3197e-014 -5.56597e-015
lhumerus -74.6658 17.1805 46.1448
lradius 98.0962
lwrist -17.1265
lhand -8.31692 39.9301
lfingers 7.12502
lthumb 17.6039 69.1532
rfemur -22.2125 -19.1259 35.38
rtibia 32.8762
rfoot -20.1019 -23.2786
rtoes -23.8196
lfemur -17.8621 3.78636 -14.5842
ltibia 63.405
lfoot -10.8802 -5.3775
ltoes -14.5231
1588
root -7.52495 16.0454 -1.3473 174.453 469.033 165.789
lowerback 2.40539 7.24116 3.01242
upperback -6.29222 9.94512 -1.22778
thorax -7.20272 4.74417 -3.74133
lowerneck 3.86895 -10.9445 -11.0746
upperneck -4.75863 -14.6695 15.2482
head -0.0343 -7.48311 6.28156
rclavicle -4.19187e-014 8.34896e-015
rhumerus -4.104 3.77664 -91.7416
rradius 101.363
rwrist -3.48451
rhand 10.4821 46.2309
rfingers 7.12502
rthumb 35.5835 19.8131
lclavicle -4.19187e-014 8.34896e-015
lhumerus -73.8732 17.0271 46.296
lradius 98.468
lwrist -15.7007
lhand -8.53509 40.1568
lfingers 7.12502
lthumb 17.3939 69.3985
rfemur -24.3264 -19.9293 36.2906
rtibia 33.302
rfoot -20.285 -24.5034
rtoes -22.4415
lfemur -16.1065 3.76942 -14.4458
ltibia 60.827
lfoot -10.7203 -6.6366
ltoes -18.0654
1589
root -7.77781 16.0176 -1.4027 172.433 466.217 163.35
lowerback 2.18485 7.19603 2.828
upperback -6.48762 9.89395 -1.09796
thorax -7.34446 4.73355 -3.49646
lowerneck 4.42316 -11.4294 -11.2391
upperneck -5.26517 -15.3477 14.9937
head -0.192133 -7.83987 6.25206
rclavicle -5.82191e-014 -9.54166e-015
rhumerus -3.32405 2.99602 -91.6676
rradius 100.128
rwrist -2.65985
rhand 8.94238 45.5717
rfingers 7.12502
rthumb 34.1225 18.8152
lclavicle -5.82191e-014 -9.54166e-015
lhumerus -72.9267 16.7396 46.5589
lradius 98.8504
lwrist -14.8297
lhand -8.84552 39.5583
lfingers 7.12502
lthumb 17.0951 68.8262
rfemur -26.4112 -20.5667 37.0804
rtibia 33.7016
rfoot -20.3456 -25.9594
rtoes -20.1202
lfemur -14.2519 3.54448 -14.3313
ltibia 57.8695
lfoot -9.51511 -7.02104
ltoes -17.3759
1590
root -8.02717 15.993 -1.46463 172.253 463.612 163.207
lowerback 1.97814 7.16633 1.92375
upperback -6.33034 9.79572 -1.01903
thorax -7.22347 4.74602 -2.89113
lowerneck 4.79071 -11.8175 -11.4017
upperneck -5.73858 -15.8862 14.7355
head -0.329649 -8.11725 6.21696
rclavicle 2.43387e-014 -1.98785e-015
rhumerus -2.12049 2.50825 -91.2948
rradius 98.537
rwrist -2.49297
rhand 7.59305 44.9038
rfingers 7.12502
rthumb 32.84 17.87
lclavicle 2.43387e-014 -1.98785e-015
lhumerus -71.8121 16.8028 47.1362
lradius 99.4621
lwrist -14.5413
lhand -9.20672 39.8773
lfingers 7.12502
lthumb 16.7474 69.175
rfemur -28.0524 -20.6495 36.744
rtibia 34.2102
rfoot -20.7602 -27.6011
rtoes -17.0335
lfemur -11.8614 2.98008 -15.1312
ltibia 54.3098
lfoot -8.29282 -6.17368
ltoes -14.6099
1591
root -8.277 15.9747 -1.53685 174.219 461.333 165.66
lowerback 2.34168 7.20921 0.674633
upperback -6.10602 9.7733 -1.02736
thorax -7.3978 4.79702 -2.27816
lowerneck 5.2232 -12.1422 -11.5728
upperneck -6.07549 -16.3591 14.5314
head -0.441646 -8.36277 6.20302
rclavicle -5.81694e-014 -4.37326e-015
rhumerus -1.18365 1.96824 -90.8449
rradius 96.7633
rwrist -2.48659
rhand 7.35685 44.6673
rfingers 7.12502
rthumb 32.6153 17.5867
lclavicle -5.81694e-014 -4.37326e-015
lhumerus -70.718 16.8303 47.775
lradius 100.059
lwrist -14.4766
lhand -9.86992 39.7751
lfingers 7.12502
lthumb 16.1089 69.1256
rfemur -29.138 -20.5258 35.6019
rtibia 34.6977
rfoot -21.442 -29.0722
rtoes -12.9038
lfemur -8.99415 2.11223 -16.6153
ltibia 50.2315
lfoot -7.88164 -4.5662
ltoes -6.58038
1592
root -8.5354 15.9593 -1.62219 177.238 459.265 169.237
lowerback 2.9489 7.22884 -0.449009
upperback -5.85817 9.71843 -0.999647
thorax -7.67684 4.82124 -1.72509
lowerneck 5.62282 -12.434 -11.6022
upperneck -6.4394 -16.7793 14.1826
head -0.589099 -8.57775 6.13139
rclavicle -4.14093e-014 -2.38542e-015
rhumerus -0.175245 1.54941 -90.2002
rradius 94.8411
rwrist -2.28383
rhand 7.3545 44.729
rfingers 7.12502
rthumb 32.6131 17.6479
lclavicle -4.14093e-014 -2.38542e-015
lhumerus -69.6866 17.012 48.5056
lradius 100.703
lwrist -14.565
lhand -11.0719 39.8506
lfingers 7.12502
lthumb 14.9512 69.291
rfemur -30.1399 -20.3631 34.3698
rtibia 35.1761
rfoot -22.0404 -30.6346
rtoes -7.99533
lfemur -6.14953 1.25443 -18.1254
ltibia 45.902
lfoot -14.2181 -3.46152
ltoes -5.13359
